{
    "asset": {
        "version": "2.0",
        "generator": "Open Asset Import Library (assimp v5.0.5eb040c7)"
    },
    "accessors": [
        {
            "bufferView": 0,
            "byteOffset": 0,
            "componentType": 5126,
            "count": 2528,
            "type": "VEC3",
            "max": [
                13.34343433380127,
                13.621795654296875,
                84.39187622070313
            ],
            "min": [
                -18.717971801757814,
                -11.988139152526856,
                -0.07812026143074036
            ]
        },
        {
            "bufferView": 1,
            "byteOffset": 0,
            "componentType": 5126,
            "count": 2528,
            "type": "VEC3",
            "max": [
                0.9989237785339356,
                0.9991005063056946,
                0.6974908709526062
            ],
            "min": [
                -0.9990265965461731,
                -0.9996882677078247,
                -0.6935118436813355
            ]
        },
        {
            "bufferView": 2,
            "byteOffset": 0,
            "componentType": 5125,
            "count": 14592,
            "type": "SCALAR",
            "max": [
                2527
            ],
            "min": [
                0
            ]
        },
        {
            "bufferView": 3,
            "byteOffset": 0,
            "componentType": 5126,
            "count": 4544,
            "type": "VEC3",
            "max": [
                69.92081451416016,
                74.7818374633789,
                183.05784606933595
            ],
            "min": [
                -59.746944427490237,
                -53.378700256347659,
                34.22417068481445
            ]
        },
        {
            "bufferView": 4,
            "byteOffset": 0,
            "componentType": 5126,
            "count": 4544,
            "type": "VEC3",
            "max": [
                0.9999442100524902,
                0.9855141639709473,
                0.8945388197898865
            ],
            "min": [
                -0.996997594833374,
                -0.9912910461425781,
                -0.8782379031181336
            ]
        },
        {
            "bufferView": 5,
            "byteOffset": 0,
            "componentType": 5125,
            "count": 26688,
            "type": "SCALAR",
            "max": [
                4543
            ],
            "min": [
                0
            ]
        },
        {
            "bufferView": 6,
            "byteOffset": 0,
            "componentType": 5126,
            "count": 3904,
            "type": "VEC3",
            "max": [
                70.48648071289063,
                74.745849609375,
                183.05007934570313
            ],
            "min": [
                -64.25410461425781,
                -56.3979377746582,
                34.57274627685547
            ]
        },
        {
            "bufferView": 7,
            "byteOffset": 0,
            "componentType": 5126,
            "count": 3904,
            "type": "VEC3",
            "max": [
                0.9757479429244995,
                0.9781334400177002,
                0.9995485544204712
            ],
            "min": [
                -0.9385823011398315,
                -0.9520852565765381,
                0.13176323473453523
            ]
        },
        {
            "bufferView": 8,
            "byteOffset": 0,
            "componentType": 5125,
            "count": 19800,
            "type": "SCALAR",
            "max": [
                3903
            ],
            "min": [
                0
            ]
        },
        {
            "bufferView": 9,
            "byteOffset": 0,
            "componentType": 5126,
            "count": 3279,
            "type": "VEC3",
            "max": [
                9.825346946716309,
                8.725367546081543,
                20.250043869018556
            ],
            "min": [
                -8.678878784179688,
                -8.467049598693848,
                6.477001190185547
            ]
        },
        {
            "bufferView": 10,
            "byteOffset": 0,
            "componentType": 5126,
            "count": 3279,
            "type": "VEC3",
            "max": [
                0.9931977391242981,
                0.992910623550415,
                -0.028295626863837243
            ],
            "min": [
                -0.9990339875221252,
                -0.991929292678833,
                -0.9999648332595825
            ]
        },
        {
            "bufferView": 11,
            "byteOffset": 0,
            "componentType": 5125,
            "count": 17376,
            "type": "SCALAR",
            "max": [
                3278
            ],
            "min": [
                0
            ]
        },
        {
            "bufferView": 12,
            "byteOffset": 0,
            "componentType": 5126,
            "count": 1490,
            "type": "VEC3",
            "max": [
                25.637971878051759,
                25.573427200317384,
                45.65715026855469
            ],
            "min": [
                -25.638004302978517,
                -25.573429107666017,
                0.0
            ]
        },
        {
            "bufferView": 13,
            "byteOffset": 0,
            "componentType": 5126,
            "count": 1490,
            "type": "VEC3",
            "max": [
                0.9999426007270813,
                0.9996924996376038,
                1.0
            ],
            "min": [
                -0.9999426603317261,
                -0.9996929168701172,
                -0.9999963641166687
            ]
        },
        {
            "bufferView": 14,
            "byteOffset": 0,
            "componentType": 5125,
            "count": 8928,
            "type": "SCALAR",
            "max": [
                1489
            ],
            "min": [
                0
            ]
        },
        {
            "bufferView": 15,
            "byteOffset": 0,
            "componentType": 5126,
            "count": 3905,
            "type": "VEC3",
            "max": [
                19.075653076171876,
                19.075651168823243,
                48.01984786987305
            ],
            "min": [
                -19.075651168823243,
                -19.07564926147461,
                44.755985260009769
            ]
        },
        {
            "bufferView": 16,
            "byteOffset": 0,
            "componentType": 5126,
            "count": 3905,
            "type": "VEC3",
            "max": [
                0.7771335244178772,
                0.6958990693092346,
                0.9999927282333374
            ],
            "min": [
                -0.6853005886077881,
                -0.7265369296073914,
                0.6081045269966126
            ]
        },
        {
            "bufferView": 17,
            "byteOffset": 0,
            "componentType": 5125,
            "count": 23040,
            "type": "SCALAR",
            "max": [
                3904
            ],
            "min": [
                0
            ]
        },
        {
            "bufferView": 18,
            "byteOffset": 0,
            "componentType": 5126,
            "count": 88049,
            "type": "VEC3",
            "max": [
                20.7706356048584,
                20.345592498779298,
                52.605560302734378
            ],
            "min": [
                -20.660154342651368,
                -20.138994216918947,
                41.494754791259769
            ]
        },
        {
            "bufferView": 19,
            "byteOffset": 0,
            "componentType": 5126,
            "count": 88049,
            "type": "VEC3",
            "max": [
                0.9999329447746277,
                0.9999977350234985,
                0.9999954104423523
            ],
            "min": [
                -0.9999947547912598,
                -0.9999829530715942,
                -0.9999830722808838
            ]
        },
        {
            "bufferView": 20,
            "byteOffset": 0,
            "componentType": 5125,
            "count": 305706,
            "type": "SCALAR",
            "max": [
                88048
            ],
            "min": [
                0
            ]
        }
    ],
    "buffers": [
        {
            "byteLength": 4249296,
            "uri": "result.bin"
        }
    ],
    "bufferViews": [
        {
            "buffer": 0,
            "byteOffset": 0,
            "byteLength": 30336,
            "target": 34962
        },
        {
            "buffer": 0,
            "byteOffset": 30336,
            "byteLength": 30336,
            "target": 34962
        },
        {
            "buffer": 0,
            "byteOffset": 60672,
            "byteLength": 58368,
            "target": 34963
        },
        {
            "buffer": 0,
            "byteOffset": 119040,
            "byteLength": 54528,
            "target": 34962
        },
        {
            "buffer": 0,
            "byteOffset": 173568,
            "byteLength": 54528,
            "target": 34962
        },
        {
            "buffer": 0,
            "byteOffset": 228096,
            "byteLength": 106752,
            "target": 34963
        },
        {
            "buffer": 0,
            "byteOffset": 334848,
            "byteLength": 46848,
            "target": 34962
        },
        {
            "buffer": 0,
            "byteOffset": 381696,
            "byteLength": 46848,
            "target": 34962
        },
        {
            "buffer": 0,
            "byteOffset": 428544,
            "byteLength": 79200,
            "target": 34963
        },
        {
            "buffer": 0,
            "byteOffset": 507744,
            "byteLength": 39348,
            "target": 34962
        },
        {
            "buffer": 0,
            "byteOffset": 547092,
            "byteLength": 39348,
            "target": 34962
        },
        {
            "buffer": 0,
            "byteOffset": 586440,
            "byteLength": 69504,
            "target": 34963
        },
        {
            "buffer": 0,
            "byteOffset": 655944,
            "byteLength": 17880,
            "target": 34962
        },
        {
            "buffer": 0,
            "byteOffset": 673824,
            "byteLength": 17880,
            "target": 34962
        },
        {
            "buffer": 0,
            "byteOffset": 691704,
            "byteLength": 35712,
            "target": 34963
        },
        {
            "buffer": 0,
            "byteOffset": 727416,
            "byteLength": 46860,
            "target": 34962
        },
        {
            "buffer": 0,
            "byteOffset": 774276,
            "byteLength": 46860,
            "target": 34962
        },
        {
            "buffer": 0,
            "byteOffset": 821136,
            "byteLength": 92160,
            "target": 34963
        },
        {
            "buffer": 0,
            "byteOffset": 913296,
            "byteLength": 1056588,
            "target": 34962
        },
        {
            "buffer": 0,
            "byteOffset": 1969884,
            "byteLength": 1056588,
            "target": 34962
        },
        {
            "buffer": 0,
            "byteOffset": 3026472,
            "byteLength": 1222824,
            "target": 34963
        }
    ],
    "materials": [
        {
            "name": "stem1",
            "pbrMetallicRoughness": {
                "baseColorFactor": [
                    0.5,
                    0.5,
                    0.5,
                    1.0
                ],
                "metallicFactor": 0.0,
                "roughnessFactor": 0.792352557182312
            }
        },
        {
            "name": "stem2",
            "pbrMetallicRoughness": {
                "baseColorFactor": [
                    0.5,
                    0.5,
                    0.5,
                    1.0
                ],
                "metallicFactor": 0.0,
                "roughnessFactor": 0.792352557182312
            }
        },
        {
            "name": "leaf",
            "pbrMetallicRoughness": {
                "baseColorFactor": [
                    0.5,
                    0.5,
                    0.5,
                    1.0
                ],
                "metallicFactor": 0.0,
                "roughnessFactor": 0.7474558353424072
            }
        },
        {
            "name": "leaf_wood",
            "pbrMetallicRoughness": {
                "baseColorFactor": [
                    0.5,
                    0.5,
                    0.5,
                    1.0
                ],
                "metallicFactor": 0.0
            }
        },
        {
            "name": "stone",
            "pbrMetallicRoughness": {
                "baseColorFactor": [
                    0.5,
                    0.5,
                    0.5,
                    1.0
                ],
                "metallicFactor": 0.0
            }
        },
        {
            "name": "ground",
            "pbrMetallicRoughness": {
                "baseColorFactor": [
                    0.5,
                    0.5,
                    0.5,
                    1.0
                ],
                "metallicFactor": 0.0
            }
        },
        {
            "name": "wood",
            "pbrMetallicRoughness": {
                "baseColorFactor": [
                    0.5,
                    0.5,
                    0.5,
                    1.0
                ],
                "metallicFactor": 0.0
            }
        }
    ],
    "meshes": [
        {
            "name": "123",
            "primitives": [
                {
                    "mode": 4,
                    "material": 0,
                    "indices": 2,
                    "attributes": {
                        "POSITION": 0,
                        "NORMAL": 1
                    }
                },
                {
                    "mode": 4,
                    "material": 1,
                    "indices": 5,
                    "attributes": {
                        "POSITION": 3,
                        "NORMAL": 4
                    }
                },
                {
                    "mode": 4,
                    "material": 2,
                    "indices": 8,
                    "attributes": {
                        "POSITION": 6,
                        "NORMAL": 7
                    }
                },
                {
                    "mode": 4,
                    "material": 3,
                    "indices": 11,
                    "attributes": {
                        "POSITION": 9,
                        "NORMAL": 10
                    }
                }
            ]
        },
        {
            "name": "123",
            "primitives": [
                {
                    "mode": 4,
                    "material": 4,
                    "indices": 14,
                    "attributes": {
                        "POSITION": 12,
                        "NORMAL": 13
                    }
                },
                {
                    "mode": 4,
                    "material": 5,
                    "indices": 17,
                    "attributes": {
                        "POSITION": 15,
                        "NORMAL": 16
                    }
                },
                {
                    "mode": 4,
                    "material": 6,
                    "indices": 20,
                    "attributes": {
                        "POSITION": 18,
                        "NORMAL": 19
                    }
                }
            ]
        }
    ],
    "nodes": [
        {
            "name": "RootNode",
            "children": [
                1
            ]
        },
        {
            "name": "plant_1_$AssimpFbx$_Translation",
            "matrix": [
                1.0,
                0.0,
                0.0,
                0.0,
                0.0,
                1.0,
                0.0,
                0.0,
                0.0,
                0.0,
                1.0,
                0.0,
                5.828012943267822,
                0.0,
                2.0626425743103029,
                1.0
            ],
            "children": [
                2
            ]
        },
        {
            "name": "plant_1_$AssimpFbx$_PreRotation",
            "matrix": [
                1.0,
                0.0,
                0.0,
                0.0,
                0.0,
                -4.371138828673793e-8,
                -1.0,
                0.0,
                0.0,
                1.0,
                -4.371138828673793e-8,
                0.0,
                0.0,
                0.0,
                0.0,
                1.0
            ],
            "children": [
                3
            ]
        },
        {
            "name": "plant_1_$AssimpFbx$_Rotation",
            "matrix": [
                0.42261868715286257,
                0.906307578086853,
                0.0,
                0.0,
                -0.906307578086853,
                0.42261868715286257,
                0.0,
                0.0,
                0.0,
                0.0,
                1.0,
                0.0,
                0.0,
                0.0,
                0.0,
                1.0
            ],
            "children": [
                4
            ]
        },
        {
            "name": "plant_1_$AssimpFbx$_Scaling",
            "matrix": [
                0.7248920202255249,
                0.0,
                0.0,
                0.0,
                0.0,
                0.7248920202255249,
                0.0,
                0.0,
                0.0,
                0.0,
                0.7248920202255249,
                0.0,
                0.0,
                0.0,
                0.0,
                1.0
            ],
            "children": [
                5
            ]
        },
        {
            "name": "plant_1_$AssimpFbx$_GeometricTranslation",
            "matrix": [
                1.0,
                0.0,
                0.0,
                0.0,
                0.0,
                1.0,
                0.0,
                0.0,
                0.0,
                0.0,
                1.0,
                0.0,
                3.034252882003784,
                8.646679878234864,
                111.8441162109375,
                1.0
            ],
            "children": [
                6
            ]
        },
        {
            "name": "plant_1",
            "children": [
                7
            ]
        },
        {
            "name": "plant_1_$AssimpFbx$_GeometricTranslationInverse",
            "matrix": [
                1.0,
                0.0,
                0.0,
                0.0,
                0.0,
                1.0,
                0.0,
                0.0,
                0.0,
                0.0,
                1.0,
                0.0,
                -3.034252882003784,
                -8.646679878234864,
                -111.8441162109375,
                1.0
            ],
            "children": [
                8,
                9
            ]
        },
        {
            "name": "123",
            "matrix": [
                1.0,
                0.0,
                0.0,
                0.0,
                0.0,
                1.0,
                0.0,
                0.0,
                0.0,
                0.0,
                1.0,
                0.0,
                -0.08193397521972656,
                -0.545262336730957,
                40.630374908447269,
                1.0
            ],
            "mesh": 0
        },
        {
            "name": "123_node",
            "mesh": 1
        }
    ],
    "scenes": [
        {
            "nodes": [
                0
            ]
        }
    ],
    "scene": 0
}